# xmcd
#
# Track frame offsets:
# 150
# 2760
# 24005
# 42673
# 57966
# 72732
# 88543
# 100551
# 119670
# 133251
# 151477
# 164417
# 179765
# 201555
# 218000
#
# Disc length: 3415 seconds
#
#
# Revision: 0
# Processed by: cddbd v1.5.2PL0 Copyright (c) Steve Scherf et al.
# Submitted via: FreeRIP 2.951 
#
DISCID=dc0d550f
DTITLE=100% Caipira Vol.II - CD1
DYEAR=2007
DGENRE=Country
TTITLE0=Admilson Porfirio - 100% Caipira
TTITLE1=Coral Ecumênico LBV - Mãe Santíssima
TTITLE2=Berenice Azambuia - É disso que o velho gosta
TTITLE3=Trio Parada Dura - Blusa Vermelha
TTITLE4=Dany and Diego - Distante dela
TTITLE5=Pedro Bento and Zé da Estrada - Boiada
TTITLE6=Zé Henrique and Gabriel - Pinga na cabeça
TTITLE7=Milionário and José Rico - Solidão
TTITLE8=Teodoro and Sampaio - Pinga ni mim
TTITLE9=Eliane Camargo - Enquanto a chuva cai
TTITLE10=Léo Canhoto and Robertinho - Vou tomar um pingão
TTITLE11=Grupo Tradição - Te digo sim
TTITLE12=Cezar and Paulinho - Nunca mais
TTITLE13=Liu and Léu - Rainha do Paraná
TTITLE14=Gigante do Brasil - Bens materiais
EXTD=
EXTT0=
EXTT1=
EXTT2=
EXTT3=
EXTT4=
EXTT5=
EXTT6=
EXTT7=
EXTT8=
EXTT9=
EXTT10=
EXTT11=
EXTT12=
EXTT13=
EXTT14=
PLAYORDER=
